<?xml version="1.0" standalone="no"?>
<!DOCTYPE svg PUBLIC "-//W3C//DTD SVG 20010904//EN"
 "http://www.w3.org/TR/2001/REC-SVG-20010904/DTD/svg10.dtd">
<svg version="1.0" xmlns="http://www.w3.org/2000/svg"
 width="225.000000pt" height="225.000000pt" viewBox="0 0 225.000000 225.000000"
 preserveAspectRatio="xMidYMid meet">
<metadata>
Created by potrace 1.10, written by Peter Selinger 2001-2011
</metadata>
<g transform="translate(0.000000,225.000000) scale(0.100000,-0.100000)"
fill="#000000" stroke="none">
<path d="M922 2174 c-39 -16 -56 -53 -41 -91 14 -37 38 -52 81 -53 62 0 98 67
63 117 -22 32 -65 43 -103 27z m73 -28 c20 -30 16 -85 -6 -99 -9 -5 -28 -7
-42 -3 -33 8 -56 71 -38 105 17 30 66 29 86 -3z"/>
<path d="M1079 2148 c0 -2 -1 -27 -2 -56 -2 -47 0 -52 20 -52 19 0 20 3 10 29
-13 35 -4 61 23 61 11 0 20 5 20 10 0 14 -23 13 -38 -2 -9 -9 -12 -9 -12 0 0
10 -18 18 -21 10z"/>
<path d="M1174 2135 c-4 -8 -4 -24 -1 -35 3 -11 1 -22 -4 -25 -4 -3 -6 -12 -2
-20 3 -8 0 -15 -6 -15 -17 0 -13 -27 5 -34 28 -11 71 -6 84 9 20 24 4 45 -35
45 -44 0 -46 18 -2 22 24 2 33 8 35 26 2 12 11 23 20 23 21 2 -34 16 -66 18
-12 0 -25 -6 -28 -14z m56 -20 c0 -18 -5 -25 -20 -25 -15 0 -20 7 -20 25 0 18
5 25 20 25 15 0 20 -7 20 -25z m20 -82 c7 -6 -22 -23 -40 -23 -24 0 -43 17
-35 29 6 11 62 7 75 -6z"/>
<path d="M736 2127 c-13 -10 -17 -22 -14 -40 3 -15 0 -28 -6 -31 -6 -2 -3 -5
6 -5 21 -1 50 -54 42 -76 -6 -13 -3 -14 19 -4 25 11 25 12 6 32 -26 29 -34 58
-18 68 10 6 8 9 -7 9 -26 0 -40 28 -19 36 8 3 19 2 26 -2 7 -4 10 -2 7 6 -6
20 -21 22 -42 7z"/>
<path d="M1310 2115 c-10 -12 -10 -15 3 -15 8 0 17 6 20 13 9 24 25 -8 20 -40
-4 -24 -11 -33 -24 -33 -24 0 -25 19 -1 36 15 12 15 13 -5 7 -47 -11 -54 -53
-9 -53 12 0 26 -4 32 -10 6 -6 15 -6 24 0 8 5 10 10 4 10 -8 0 -8 11 0 41 8
33 8 42 -4 49 -22 14 -46 12 -60 -5z"/>
<path d="M1425 2090 c4 -6 -2 -26 -13 -44 -21 -35 -19 -46 6 -46 9 0 13 3 9 6
-3 3 3 26 13 50 19 44 19 44 -1 44 -11 0 -17 -5 -14 -10z"/>
<path d="M1479 2077 c14 -18 8 -49 -15 -72 -14 -13 -14 -16 3 -22 10 -3 29
-15 42 -25 25 -19 46 -24 37 -9 -3 5 5 25 19 45 29 42 30 46 12 46 -7 0 -21
-16 -30 -36 -20 -42 -54 -45 -50 -4 2 14 4 38 5 55 2 23 -2 30 -17 33 -17 4
-17 2 -6 -11z"/>
<path d="M636 2014 c-20 -19 -20 -34 0 -62 26 -37 94 -25 94 17 0 12 -3 11
-13 -3 -14 -19 -58 -19 -64 -1 -2 6 11 19 28 29 24 14 28 21 18 27 -21 13 -46
11 -63 -7z"/>
<path d="M1614 1998 c-5 -7 -2 -9 8 -5 9 3 24 0 34 -8 17 -12 13 -15 -40 -30
-32 -9 -54 -21 -49 -26 4 -4 38 1 76 13 l68 20 -35 24 c-39 27 -52 29 -62 12z"/>
<path d="M554 1958 c-4 -6 -2 -14 5 -16 20 -7 60 -55 54 -65 -3 -5 4 -4 15 2
19 10 18 12 -18 51 -40 43 -45 46 -56 28z"/>
<path d="M925 1950 c-240 -62 -420 -200 -542 -415 -46 -82 -55 -104 -83 -205
-25 -92 -27 -274 -5 -380 32 -151 112 -300 222 -413 157 -161 343 -245 567
-255 229 -10 405 46 576 184 36 29 74 63 84 75 161 190 229 366 228 585 0 99
-12 175 -44 272 -44 137 -158 301 -266 384 -31 23 -58 46 -60 51 -2 4 -8 7
-12 7 -5 0 -35 15 -67 34 -65 37 -158 70 -247 85 -93 17 -270 12 -351 -9z
m305 1 c35 -7 38 -9 16 -10 -21 -1 -27 -4 -20 -11 8 -8 19 -8 38 0 15 5 35 10
44 9 14 0 14 -2 -2 -8 -18 -7 -19 -8 -2 -14 10 -4 25 -2 32 4 9 7 14 8 14 1 0
-5 6 -10 13 -9 34 1 48 -4 41 -15 -5 -7 -3 -8 6 -3 16 10 131 -45 123 -58 -3
-6 -1 -7 6 -3 6 4 38 -12 74 -37 213 -154 339 -403 338 -667 -2 -210 -57 -369
-183 -528 -172 -216 -480 -341 -744 -302 -210 31 -361 107 -500 252 -101 105
-164 216 -204 361 -29 102 -29 294 -1 406 37 148 135 319 238 412 182 167 460
257 673 220z"/>
<path d="M1140 1730 l0 -220 -106 0 c-96 0 -105 2 -100 18 2 9 13 53 22 96 14
60 23 80 37 84 13 3 15 7 6 12 -12 8 -10 15 36 123 9 22 12 36 7 33 -4 -3 -21
-37 -37 -77 -19 -46 -36 -74 -48 -77 -11 -3 -14 -7 -8 -12 8 -4 4 -35 -11
-103 l-23 -97 -89 0 -88 0 7 28 c4 15 23 59 43 97 32 60 41 71 67 74 22 2 26
5 12 10 -16 6 -15 10 9 46 l25 40 -30 -35 c-17 -19 -31 -38 -31 -42 0 -4 -30
-8 -66 -8 -58 0 -65 2 -54 15 18 21 4 19 -19 -4 -22 -22 -79 -18 -60 5 6 7 16
11 23 8 14 -5 98 64 91 75 -4 8 125 72 175 87 28 8 70 14 117 17 17 1 35 6 40
11 4 5 -20 6 -55 2 -79 -9 -202 -52 -278 -97 -65 -39 -177 -145 -223 -212 -43
-63 -94 -176 -87 -193 3 -8 2 -13 -3 -10 -12 8 -23 -41 -15 -66 4 -14 2 -18
-5 -14 -6 4 -11 6 -11 4 0 -2 -3 -49 -7 -106 -4 -66 -2 -102 4 -102 6 0 8 -11
5 -25 -6 -35 27 -167 41 -158 6 4 8 0 4 -11 -8 -19 31 -109 43 -101 4 3 18
-12 30 -32 17 -29 18 -34 4 -22 -28 23 71 -103 107 -136 17 -16 29 -24 24 -16
-5 9 -3 12 6 9 8 -3 13 -10 12 -16 -3 -14 47 -53 58 -46 5 3 9 1 9 -5 0 -10
36 -33 93 -58 40 -18 33 -6 -11 16 -20 10 -55 36 -77 56 -58 53 -95 78 -95 64
0 -9 -4 -8 -15 1 -19 16 -19 34 0 27 8 -4 17 -1 21 5 5 7 -2 9 -20 6 -14 -3
-34 1 -43 8 -17 12 -16 13 5 14 l23 0 -24 33 c-14 17 -34 51 -45 73 -17 34
-26 41 -48 40 -15 0 -29 4 -31 11 -3 9 29 12 121 12 113 1 126 -1 126 -17 0
-21 71 -159 99 -192 11 -14 30 -36 41 -50 19 -23 18 -21 -2 21 -13 26 -27 46
-33 45 -10 -1 -95 160 -95 182 0 9 24 12 88 12 l88 0 23 -97 c21 -86 98 -279
107 -270 3 3 -13 43 -67 172 -5 11 -16 52 -24 90 -9 39 -18 78 -21 88 -5 15 4
17 100 17 l106 0 0 -215 c0 -165 3 -215 13 -215 9 0 11 48 10 215 l-3 215 110
0 110 0 -7 -27 c-4 -16 -14 -59 -23 -98 -10 -40 -21 -69 -28 -68 -6 2 -9 -3
-6 -11 3 -7 -6 -42 -20 -76 -14 -35 -24 -65 -23 -67 2 -2 17 27 32 64 16 38
32 73 36 78 3 6 17 54 29 108 l22 97 90 0 c88 0 89 0 83 -22 -14 -48 -65 -144
-92 -175 -30 -33 -68 -93 -59 -93 3 0 19 20 36 45 17 25 38 45 47 45 9 0 14 3
10 6 -3 3 12 42 34 87 21 44 39 87 39 94 0 10 21 13 80 13 l80 0 -26 -52 c-15
-29 -38 -68 -52 -85 -13 -18 -20 -33 -16 -33 10 0 74 100 92 143 10 22 18 27
47 27 19 0 35 5 35 10 0 6 -45 10 -114 10 l-113 0 19 68 c10 37 21 100 25 140
l6 72 83 0 83 0 4 -47 3 -48 2 48 c2 45 3 47 32 47 19 0 30 5 30 14 0 12 -22
15 -117 14 l-118 -1 -7 78 c-4 42 -14 102 -23 131 -8 30 -15 57 -15 61 0 4 50
7 110 6 61 -1 110 3 110 8 0 5 -15 9 -33 9 -30 0 -36 5 -52 41 -20 43 -85 140
-85 126 0 -5 11 -23 24 -40 23 -31 66 -110 66 -122 0 -3 -36 -5 -80 -5 -66 0
-80 3 -80 16 0 8 -18 51 -40 95 -22 45 -37 85 -34 91 4 7 2 8 -4 4 -11 -6 -24
5 -67 59 -9 11 -6 2 6 -20 13 -21 32 -48 42 -58 19 -19 69 -120 82 -164 6 -23
5 -23 -82 -23 l-89 0 -23 96 c-20 80 -21 98 -10 105 10 6 8 9 -8 9 -13 0 -23
6 -23 13 0 15 -77 177 -84 177 -3 0 10 -33 28 -72 57 -123 58 -118 -16 -120
l-63 -2 70 -5 70 -6 17 -75 c9 -41 20 -85 23 -98 l6 -23 -108 3 -108 3 0 212
c0 163 -3 214 -12 218 -10 3 -13 -42 -13 -215z m-477 -32 c4 -10 7 -10 18 0
11 10 129 19 129 9 0 -2 -17 -37 -38 -78 -21 -41 -41 -84 -44 -96 -6 -21 -12
-23 -82 -23 -42 0 -76 2 -76 5 0 3 9 24 21 46 11 23 16 39 11 36 -4 -4 -17
-24 -27 -47 -17 -37 -21 -40 -57 -40 -21 0 -38 3 -38 8 0 12 59 110 71 117 6
4 0 -10 -13 -31 -14 -22 -28 -45 -32 -51 -5 -9 1 -13 18 -13 17 0 27 7 32 23
3 12 19 41 35 65 16 24 29 45 29 48 0 10 -25 3 -44 -13 -12 -10 -8 -3 8 15 30
32 70 43 79 20z m47 -210 c0 -4 -7 -37 -16 -75 -9 -37 -19 -97 -22 -132 l-7
-65 -85 2 c-47 1 -104 1 -127 2 -28 0 -43 4 -43 13 0 7 12 13 28 12 26 0 27 2
34 65 3 36 14 85 22 109 20 54 21 51 -9 51 -25 0 -35 15 -15 22 20 6 240 3
240 -4z m192 -34 c-2 -21 -9 -84 -15 -138 l-12 -100 -97 0 -98 -1 0 32 c0 71
40 230 60 243 5 3 44 5 87 5 l78 -1 -3 -40z m238 -99 l0 -140 -120 0 c-100 0
-120 2 -120 15 1 60 23 256 30 260 5 3 54 5 109 5 l101 1 0 -141z m252 59 c3
-44 8 -105 10 -137 l3 -58 -120 -1 -120 0 -2 128 c-1 71 0 134 2 141 2 8 36
10 112 8 l108 -3 7 -78z m208 5 c11 -41 21 -103 22 -138 l3 -63 -96 -2 -96 -2
-12 112 c-6 62 -14 125 -17 141 l-5 28 90 0 90 0 21 -76z m-930 -273 c0 -54
25 -188 40 -216 11 -20 10 -21 -116 -18 -83 2 -129 7 -131 14 -2 7 6 10 22 7
14 -3 25 -4 25 -2 0 2 -9 32 -20 67 -11 34 -20 85 -21 112 -2 48 -3 50 -31 50
-18 0 -28 5 -28 15 0 13 21 15 130 15 l130 0 0 -44z m219 -83 c7 -70 15 -133
18 -140 4 -10 -15 -13 -86 -13 l-90 0 -16 53 c-20 70 -35 152 -35 193 l0 34
98 0 98 0 13 -127z m251 -13 l0 -140 -109 0 -108 0 -7 70 c-3 39 -9 102 -12
140 l-7 70 122 0 121 0 0 -140z m266 98 c-3 -24 -8 -87 -12 -140 l-6 -98 -114
0 -114 0 0 140 0 140 126 0 125 0 -5 -42z m224 15 c0 -41 -17 -138 -35 -199
l-16 -54 -90 0 -91 0 6 28 c5 24 26 221 26 243 0 5 45 9 100 9 l100 0 0 -27z"/>
<path d="M651 1617 c-22 -35 -41 -66 -41 -70 0 -4 23 -7 50 -7 36 0 50 4 50
14 0 8 13 39 29 70 l30 56 -38 0 c-36 0 -41 -4 -80 -63z"/>
<path d="M552 1408 c-11 -35 -23 -87 -27 -115 l-7 -53 60 0 61 0 6 58 c6 51
17 105 31 155 5 15 -2 17 -50 17 l-55 0 -19 -62z m75 -8 c0 -16 -3 -27 -6 -26
-3 2 -7 -9 -8 -25 -5 -61 -8 -69 -24 -69 -31 0 -32 36 -3 95 15 30 30 55 34
55 4 0 7 -13 7 -30z"/>
<path d="M745 1453 c-11 -31 -35 -153 -35 -184 l0 -29 70 0 c39 0 70 3 70 8 0
23 21 190 26 205 5 15 -2 17 -59 17 -53 0 -66 -3 -72 -17z m93 -35 c2 -9 -1
-19 -7 -22 -6 -4 -8 2 -6 14 2 11 0 18 -6 15 -5 -4 -7 -11 -4 -16 4 -5 1 -9
-6 -9 -7 0 -5 -6 6 -14 10 -7 20 -21 21 -30 2 -16 1 -16 -18 1 -21 18 -21 18
-10 -3 6 -12 8 -25 4 -29 -4 -5 -1 -5 6 -1 16 9 15 -4 -2 -26 -11 -15 -66 -26
-66 -14 0 2 -3 13 -7 23 -6 15 -5 16 9 5 15 -12 16 -9 11 29 -4 28 -3 40 4 36
12 -8 26 20 17 34 -9 15 4 26 28 24 13 -1 24 -9 26 -17z"/>
<path d="M947 1438 c-4 -18 -9 -70 -13 -115 l-7 -83 94 0 94 0 1 115 0 115
-82 0 -82 0 -5 -32z m122 -20 c16 -9 17 -16 9 -40 -6 -16 -8 -43 -6 -62 l4
-33 -54 -2 -54 -2 5 73 c3 40 6 74 6 76 3 7 74 0 90 -10z"/>
<path d="M1190 1355 l0 -115 96 0 96 0 -6 28 c-2 15 -8 66 -11 115 l-7 87 -84
0 -84 0 0 -115z m133 55 c15 -22 12 -117 -4 -134 -5 -6 -24 -5 -49 3 l-40 12
0 54 c0 29 3 60 6 69 9 24 69 21 87 -4z"/>
<path d="M1434 1447 c3 -13 8 -50 11 -82 3 -33 8 -75 11 -92 l5 -33 69 0 c67
0 70 1 70 24 0 27 -15 112 -30 168 l-11 38 -65 0 c-64 0 -66 -1 -60 -23z m114
-38 c3 -11 1 -11 -7 1 -9 13 -11 13 -11 -3 0 -10 7 -20 15 -23 8 -4 12 -10 9
-15 -3 -6 0 -17 8 -26 9 -12 9 -15 1 -9 -7 4 -13 2 -13 -3 0 -6 5 -11 12 -11
6 0 3 -7 -8 -16 -10 -8 -14 -13 -7 -10 6 4 14 2 17 -3 8 -12 -49 -20 -68 -9
-16 9 -21 39 -9 52 12 12 12 35 0 33 -7 -1 -12 4 -11 11 5 63 3 59 20 37 16
-20 16 -20 9 2 -6 20 -4 22 16 14 13 -4 25 -14 27 -22z"/>
<path d="M495 1115 c4 -57 42 -202 50 -193 2 2 -5 32 -15 66 -11 35 -24 91
-29 125 l-10 62 4 -60z"/>
<path d="M520 1157 c0 -18 25 -133 37 -173 l16 -51 54 0 c46 0 53 2 47 16 -3
9 -14 60 -22 114 l-16 97 -58 0 c-32 0 -58 -1 -58 -3z m99 -106 c10 -63 8 -81
-9 -81 -10 0 -19 22 -35 88 -11 46 -11 53 4 62 23 13 29 3 40 -69z"/>
<path d="M713 1106 c3 -29 13 -81 22 -113 l17 -60 64 0 c59 0 63 1 59 21 -5
20 -25 182 -25 198 0 5 -32 8 -71 8 l-72 0 6 -54z m106 8 c4 3 6 -5 5 -17 -1
-12 -3 -26 -3 -30 -1 -5 -7 -5 -13 -1 -7 5 -3 -4 9 -20 21 -26 22 -56 1 -56
-5 0 -6 -4 -3 -10 3 -5 2 -10 -4 -10 -5 0 -14 12 -20 28 l-10 27 3 -33 c3 -18
0 -30 -5 -26 -5 3 -9 23 -9 45 0 24 -4 38 -10 34 -11 -7 -15 67 -4 78 3 3 17
1 31 -4 14 -5 28 -7 32 -5z"/>
<path d="M934 1083 c4 -43 9 -95 12 -116 l6 -38 81 4 80 3 1 112 1 112 -94 0
-93 0 6 -77z m140 21 c9 -22 -6 -147 -15 -132 -5 7 -9 8 -9 2 0 -6 -13 -9 -31
-6 -37 5 -51 36 -47 101 3 44 4 46 38 51 42 7 57 3 64 -16z"/>
<path d="M1190 1047 l0 -114 84 1 85 0 5 46 c3 25 8 75 11 113 l6 67 -95 0
-96 0 0 -113z m135 69 c15 -11 17 -22 12 -66 -8 -67 -21 -82 -66 -78 l-36 3
-3 65 c-2 52 0 67 14 77 23 17 55 16 79 -1z"/>
<path d="M1447 1068 c-4 -51 -10 -103 -13 -116 -6 -22 -5 -23 59 -21 l65 2 17
60 c9 32 19 84 22 113 l6 54 -75 0 -75 0 -6 -92z m99 48 c16 -11 20 -23 16
-46 -2 -16 -8 -32 -12 -35 -5 -3 -6 5 -4 17 4 22 4 21 -6 -1 -7 -17 -7 -26 0
-31 7 -4 7 -14 1 -31 -9 -21 -10 -22 -11 -4 -1 20 -1 20 -10 0 -8 -18 -9 -18
-10 5 l-2 25 -8 -25 c-7 -21 -8 -22 -10 -5 -1 20 -1 20 -9 0 -5 -13 -8 -2 -7
33 0 28 4 52 8 52 4 0 5 9 3 20 -2 13 2 20 11 20 8 0 14 5 14 10 0 14 12 12
36 -4z"/>
<path d="M963 1838 c-80 -98 -80 -98 -44 -98 27 0 32 7 69 83 22 45 39 83 37
85 -1 2 -29 -30 -62 -70z"/>
<path d="M1056 1830 c-20 -43 -36 -82 -36 -85 0 -3 22 -5 49 -5 l48 0 1 85 c0
109 -14 110 -62 5z"/>
<path d="M1190 1825 l0 -85 50 0 49 0 -26 63 c-31 73 -52 107 -64 107 -5 0 -9
-38 -9 -85z"/>
<path d="M1280 1909 c0 -3 16 -36 35 -73 19 -37 35 -74 35 -82 0 -9 11 -14 36
-14 l35 0 -30 43 c-38 51 -110 134 -111 126z"/>
<path d="M859 1837 c-35 -30 -73 -64 -83 -75 -19 -22 -19 -22 11 -22 22 0 36
7 49 27 9 15 38 49 62 75 59 64 41 61 -39 -5z"/>
<path d="M1407 1848 c21 -24 50 -58 63 -75 18 -25 32 -33 54 -33 l29 0 -24 26
c-30 32 -144 124 -154 124 -4 0 10 -19 32 -42z"/>
<path d="M1590 1781 c25 -22 50 -40 55 -40 12 0 -52 56 -80 70 -11 6 0 -8 25
-30z"/>
<path d="M1569 1756 l34 -35 -39 -4 c-34 -3 -33 -4 13 -5 30 -1 53 -7 56 -14
4 -9 8 -10 14 -2 4 6 15 14 23 18 8 3 3 4 -11 1 -20 -4 -35 4 -68 35 -51 49
-68 53 -22 6z"/>
<path d="M1692 1682 c-8 -2 -5 -13 12 -32 13 -16 32 -47 42 -69 12 -25 26 -41
37 -41 23 0 22 4 -15 58 -52 77 -63 89 -76 84z"/>
<path d="M827 1668 c-3 -7 -17 -39 -31 -70 l-26 -58 63 0 63 0 13 58 c7 31 15
63 18 70 3 9 -9 12 -45 12 -30 0 -52 -5 -55 -12z m49 -37 c0 -11 -5 -17 -10
-14 -5 4 -7 -1 -3 -10 7 -19 -8 -33 -18 -17 -4 6 1 22 9 35 20 30 22 31 22 6z"/>
<path d="M990 1662 c0 -10 -6 -41 -14 -70 l-13 -52 76 0 77 0 1 70 2 70 -64 0
c-56 0 -65 -3 -65 -18z m85 -40 c-2 -9 -4 -25 -4 -34 -1 -10 -8 -18 -16 -18
-8 0 -15 8 -15 18 0 14 -2 15 -9 2 -6 -8 -7 -18 -4 -24 3 -5 1 -6 -5 -2 -8 4
-8 15 -2 31 7 18 6 25 -2 25 -6 0 -9 3 -6 6 4 3 16 1 27 -6 18 -9 21 -8 21 10
0 12 4 19 9 16 5 -4 8 -14 6 -24z"/>
<path d="M1190 1610 l0 -70 75 0 c84 0 82 -3 62 85 l-12 50 -63 3 -62 3 0 -71z
m106 28 c5 -7 2 -8 -7 -3 -10 6 -11 5 -3 -4 6 -7 9 -23 7 -35 -4 -20 -9 -23
-31 -17 -21 6 -28 14 -30 39 -3 30 -1 32 27 32 16 0 33 -5 37 -12z"/>
<path d="M1383 1668 c2 -7 10 -39 17 -70 l13 -58 64 0 63 0 -35 70 -35 70 -46
0 c-33 0 -45 -4 -41 -12z m62 -38 c-2 -3 0 -12 6 -20 6 -11 9 -12 9 -2 0 7 5
10 10 7 6 -3 10 -16 10 -28 0 -18 -2 -19 -10 -7 -7 11 -10 12 -10 2 0 -10 -5
-8 -17 4 -21 21 -25 51 -7 51 7 0 11 -3 9 -7z"/>
<path d="M1542 1673 c2 -5 17 -36 33 -70 l30 -62 48 -1 c26 0 47 2 47 5 0 8
-30 55 -63 98 -23 30 -35 37 -64 37 -19 0 -33 -3 -31 -7z"/>
<path d="M1633 1456 c13 -33 26 -95 32 -153 l7 -63 59 0 c32 0 59 1 59 3 0 18
-25 133 -37 175 l-17 52 -54 0 c-43 0 -53 -3 -49 -14z m79 -74 c9 23 18 3 25
-52 5 -46 4 -52 -12 -49 -12 3 -22 20 -30 49 -6 25 -15 56 -19 70 -7 24 -7 24
12 -3 13 -20 21 -25 24 -15z"/>
<path d="M1780 1416 c11 -33 21 -71 21 -85 2 -24 2 -24 6 -3 5 23 -23 119 -38
137 -5 5 0 -17 11 -49z"/>
<path d="M1804 1454 c18 -47 36 -132 36 -171 0 -37 3 -43 21 -43 20 0 21 4 15
53 -10 87 -39 171 -60 175 -15 3 -17 0 -12 -14z"/>
<path d="M345 1258 c-12 -43 -18 -101 -18 -183 -1 -105 3 -130 26 -200 101
-301 360 -513 665 -544 346 -35 658 132 808 434 30 61 46 108 50 145 l5 55
-35 -74 c-125 -258 -337 -413 -620 -453 -93 -13 -241 1 -331 32 -232 80 -408
253 -486 477 -21 61 -50 239 -44 270 9 46 12 103 5 103 -4 0 -15 -28 -25 -62z
m50 -368 c-3 -11 -2 -20 3 -20 6 0 19 -16 31 -36 17 -28 19 -39 10 -56 -11
-20 -12 -19 -25 18 -8 21 -12 45 -9 53 3 8 0 11 -8 8 -8 -3 -14 2 -14 11 -2
22 5 42 12 42 4 0 3 -9 0 -20z m64 -131 c-10 -6 -5 -11 15 -19 32 -12 27 -25
-9 -25 -18 -1 -21 2 -14 11 7 8 6 13 -2 16 -8 3 -10 11 -6 22 4 9 12 14 18 10
8 -4 7 -9 -2 -15z m48 -63 c-7 -17 18 -40 33 -31 5 3 10 1 10 -4 0 -6 16 -28
35 -49 19 -22 31 -42 28 -46 -4 -4 0 -4 10 0 15 5 15 9 5 23 -12 14 -11 15 5
2 10 -8 16 -20 13 -26 -2 -7 0 -18 5 -26 7 -11 11 -11 17 -1 7 10 14 9 33 -7
28 -22 22 -32 -20 -37 -23 -3 -31 1 -36 17 -4 12 -12 18 -21 15 -8 -3 -14 1
-14 9 0 8 -9 20 -20 28 -11 8 -17 17 -12 22 4 4 -1 5 -10 2 -10 -3 -20 -1 -24
5 -4 7 -3 8 4 4 20 -12 13 10 -9 30 -22 19 -22 19 -15 -6 4 -19 3 -18 -8 6 -8
17 -22 36 -30 43 -17 15 -22 36 -6 26 6 -3 10 -1 10 4 0 6 5 11 11 11 6 0 9
-6 6 -14z m1092 -165 c10 -2 -44 -51 -56 -51 -8 0 -12 -3 -10 -7 3 -5 -9 -8
-26 -7 -43 1 -50 -5 -35 -24 10 -12 10 -14 0 -8 -7 4 -19 0 -28 -8 -18 -18
-50 -21 -59 -6 -4 6 -11 7 -17 4 -7 -4 -7 -9 1 -13 6 -4 -4 -14 -24 -23 -19
-8 -32 -11 -29 -7 7 12 -3 11 -27 -1 -10 -6 -40 -13 -66 -16 -69 -8 -244 -5
-257 4 -6 5 -18 8 -26 7 -8 0 -18 4 -22 10 -5 6 -11 5 -18 -5 -9 -14 -11 -13
-14 9 0 5 -5 13 -10 18 -5 5 -6 3 -2 -4 11 -19 -27 -16 -63 5 -17 9 -31 20
-31 25 0 4 -7 7 -16 7 -8 0 -13 4 -10 9 3 5 -3 11 -13 14 -15 3 -18 1 -14 -12
4 -13 3 -13 -7 2 -6 9 -17 17 -25 17 -8 0 -17 4 -20 10 -3 5 0 7 9 4 8 -3 23
3 33 13 18 19 19 19 56 0 29 -15 35 -22 25 -29 -9 -7 -4 -8 15 -5 15 2 30 0
34 -6 4 -6 1 -7 -7 -2 -9 6 -11 4 -5 -4 4 -8 17 -10 33 -6 22 5 24 4 12 -10
-12 -14 -10 -15 14 -5 15 5 33 7 39 3 10 -6 36 -11 85 -15 6 -1 12 -5 12 -10
0 -4 45 -7 99 -6 54 2 94 6 87 10 -8 6 -8 8 1 8 6 0 15 -4 18 -10 3 -5 15 -10
26 -10 11 0 17 5 14 10 -3 6 5 10 19 10 14 0 28 -4 31 -10 3 -5 14 -10 23 -10
15 1 15 2 -1 14 -18 14 -18 14 0 20 10 3 36 8 58 12 49 7 57 12 49 26 -5 7 0
9 15 5 12 -3 28 1 36 10 12 11 15 12 16 1 0 -7 4 -4 9 7 5 11 9 14 9 8 1 -7 5
-13 10 -13 4 0 7 10 6 23 -3 22 5 25 44 18z"/>
<path d="M1657 1068 c-9 -51 -19 -103 -23 -115 -6 -22 -4 -23 46 -20 35 2 55
9 61 19 10 18 34 111 44 171 l6 37 -59 0 -59 0 -16 -92z m84 40 c1 -7 0 -17
-1 -23 -1 -5 -2 -22 -2 -38 0 -15 -4 -25 -9 -22 -5 4 -9 -6 -9 -21 0 -15 -3
-24 -7 -21 -3 4 -12 2 -18 -3 -9 -8 -14 -6 -19 5 -4 11 -2 14 6 9 7 -5 9 0 6
14 -4 12 -2 22 4 22 5 0 7 8 3 19 -8 25 11 71 30 71 8 0 16 -6 16 -12z"/>
<path d="M1840 1123 c0 -34 -15 -105 -35 -170 -6 -18 -3 -23 9 -23 19 0 32 30
52 123 19 92 18 107 -6 107 -16 0 -20 -7 -20 -37z"/>
<path d="M1801 1073 c0 -11 -10 -50 -21 -84 -10 -35 -17 -65 -15 -67 7 -8 47
137 42 155 -4 15 -5 14 -6 -4z"/>
<path d="M610 857 c0 -5 19 -38 42 -73 39 -60 45 -64 80 -64 l37 0 -32 69 -32
69 -48 3 c-26 2 -47 0 -47 -4z"/>
<path d="M770 866 c0 -4 16 -38 35 -76 l35 -70 46 0 c33 0 45 4 41 13 -2 6
-10 38 -17 70 l-13 57 -41 0 c-23 0 -51 3 -63 6 -13 4 -23 3 -23 0z"/>
<path d="M1034 862 l-71 -3 14 -52 c7 -28 13 -59 13 -69 0 -15 9 -18 64 -18
l63 0 -2 71 c-2 38 -4 71 -6 72 -2 1 -36 1 -75 -1z m38 -67 c-3 -23 -10 -35
-24 -38 -15 -4 -18 -2 -14 10 5 11 2 13 -10 9 -12 -5 -14 -1 -9 15 5 15 4 19
-4 15 -6 -4 -11 -2 -11 3 0 14 13 14 26 1 6 -6 15 -5 24 1 13 9 12 10 -2 5
-11 -3 -18 0 -18 8 0 8 8 12 23 9 19 -4 22 -10 19 -38z"/>
<path d="M1258 863 l-68 -4 0 -69 0 -70 63 0 62 0 13 65 c14 75 15 86 5 83 -5
-1 -38 -3 -75 -5z m34 -40 c-10 -4 -10 -8 -2 -18 7 -8 9 -23 5 -34 -5 -15 -11
-18 -33 -12 -50 13 -36 72 17 70 14 0 20 -3 13 -6z"/>
<path d="M1469 863 l-56 -4 -13 -57 c-7 -31 -15 -63 -17 -69 -4 -9 8 -13 41
-13 45 0 46 1 71 51 33 64 46 100 37 97 -4 -1 -32 -3 -63 -5z m3 -52 c-8 -4
-14 -12 -14 -17 0 -5 -5 -8 -11 -6 -6 2 -5 -4 3 -12 7 -10 8 -16 2 -16 -19 0
-24 20 -10 37 9 12 9 15 1 9 -7 -4 -13 -2 -13 3 0 6 12 11 28 11 18 0 23 -3
14 -9z"/>
<path d="M1645 863 c-39 -4 -42 -7 -70 -66 -16 -34 -31 -66 -33 -70 -2 -5 13
-7 34 -5 35 3 43 9 82 66 41 62 50 84 35 80 -5 -1 -26 -3 -48 -5z"/>
<path d="M1749 828 c-12 -24 -32 -58 -46 -75 -18 -25 -20 -33 -9 -33 12 0 106
127 106 144 0 3 -7 6 -15 6 -8 0 -24 -19 -36 -42z"/>
<path d="M1568 692 c35 -4 39 -10 20 -32 -7 -8 -2 -5 12 7 16 14 35 21 48 18
12 -2 24 0 27 5 3 5 -27 8 -67 8 -40 -1 -58 -4 -40 -6z"/>
<path d="M760 660 c0 -14 158 -150 175 -150 4 0 -12 21 -37 48 -24 26 -52 59
-62 74 -15 23 -76 46 -76 28z"/>
<path d="M1518 661 c-17 -4 -49 -32 -88 -80 -68 -80 -65 -81 25 -10 62 49 101
87 94 92 -2 2 -16 1 -31 -2z"/>
<path d="M1598 634 c-58 -48 -68 -59 -43 -46 24 12 103 81 93 82 -3 0 -26 -16
-50 -36z"/>
<path d="M919 618 c32 -46 96 -118 105 -118 3 0 -12 36 -35 80 -37 73 -42 80
-70 80 l-30 0 30 -42z"/>
<path d="M1031 633 c20 -54 64 -137 75 -140 6 -2 10 26 10 82 l-1 85 -47 0
-47 0 10 -27z"/>
<path d="M1190 574 c0 -64 3 -85 13 -82 12 4 55 83 76 141 l10 27 -50 0 -49 0
0 -86z"/>
<path d="M1318 580 c-20 -44 -35 -80 -33 -80 7 0 76 77 108 121 l29 39 -34 0
c-31 -1 -35 -5 -70 -80z"/>
<path d="M450 1945 c-10 -12 -9 -15 7 -15 11 0 41 -22 66 -49 29 -31 49 -45
55 -39 6 6 -11 29 -49 64 -32 30 -61 54 -63 54 -2 0 -9 -7 -16 -15z"/>
<path d="M1717 1933 c-15 -14 -6 -23 18 -17 19 5 25 2 25 -11 0 -14 -7 -16
-37 -11 -21 4 -44 2 -52 -3 -15 -10 -8 -41 8 -41 6 0 8 6 5 14 -7 19 11 29 38
20 l22 -7 -23 -18 c-23 -19 -21 -39 5 -39 8 0 12 5 8 11 -3 6 7 24 22 41 l29
30 -24 19 c-25 20 -34 23 -44 12z"/>
<path d="M1833 1873 c-23 -9 -83 -66 -83 -79 0 -6 7 -15 16 -18 23 -9 31 -7
14 4 -12 7 -11 13 10 35 15 16 32 24 43 21 12 -3 17 0 14 9 -3 7 0 18 6 24 11
11 2 13 -20 4z"/>
<path d="M432 1861 c-21 -13 -10 -52 21 -75 21 -15 32 -18 44 -10 29 18 39 42
25 56 -8 7 -13 9 -12 3 5 -26 -2 -35 -30 -35 -35 0 -38 10 -10 35 11 10 20 22
20 27 0 10 -41 10 -58 -1z m32 -10 c7 -10 -22 -37 -30 -28 -9 8 3 37 15 37 5
0 12 -4 15 -9z"/>
<path d="M1860 1801 c0 -11 -50 -44 -67 -44 -17 0 -16 -5 2 -23 8 -9 15 -11
15 -6 0 5 18 21 40 36 23 15 38 31 35 36 -8 12 -25 13 -25 1z"/>
<path d="M281 1758 c-30 -32 -41 -56 -20 -43 14 9 119 -56 119 -74 0 -11 4
-10 20 4 21 19 28 41 10 30 -13 -8 -65 24 -55 33 4 4 27 8 52 9 28 1 52 8 62
18 15 16 14 17 -4 11 -11 -3 -37 -8 -57 -11 -34 -6 -37 -4 -40 22 -5 43 -47
44 -87 1z m68 -2 c13 -15 5 -46 -13 -46 -21 1 -49 29 -43 45 8 19 41 20 56 1z"/>
<path d="M1866 1729 c-32 -25 -33 -54 -2 -74 25 -16 49 -12 79 13 23 21 21 48
-5 66 -29 21 -40 20 -72 -5z m74 -16 c0 -25 -30 -53 -57 -53 -30 0 -31 33 -1
54 29 21 58 20 58 -1z"/>
<path d="M1950 1629 c-19 -11 -41 -17 -47 -14 -15 5 -16 -4 -3 -25 7 -10 13
-11 18 -4 4 5 22 16 40 24 29 11 35 11 43 -1 10 -17 -13 -38 -53 -46 -23 -4
-26 -8 -17 -24 9 -18 10 -18 29 1 11 11 26 20 34 20 7 0 19 7 26 15 10 13 9
19 -6 36 -11 12 -18 24 -16 27 7 13 -14 9 -48 -9z"/>
<path d="M243 1592 c-6 -4 -13 -14 -15 -22 -2 -8 -9 -21 -17 -30 -12 -13 -9
-16 24 -23 22 -4 47 -15 57 -24 10 -9 18 -14 18 -10 0 3 3 13 7 23 3 10 2 15
-3 12 -15 -10 -74 20 -74 36 0 8 3 17 8 20 12 7 72 -22 72 -36 1 -8 6 -5 15 6
18 24 19 37 2 30 -7 -2 -29 2 -48 10 -19 8 -40 12 -46 8z"/>
<path d="M2120 1499 c0 -12 -19 -21 -66 -33 -36 -9 -69 -14 -75 -11 -12 8 -11
-6 1 -25 5 -8 10 -10 10 -4 0 6 25 18 55 26 30 8 55 13 55 11 0 -3 -20 -31
-45 -63 -25 -32 -45 -61 -45 -63 0 -3 19 2 41 10 23 7 61 16 85 20 24 3 44 8
44 12 0 12 -20 36 -20 24 0 -10 -79 -43 -102 -43 -5 0 12 27 37 60 37 48 44
63 36 77 -9 16 -10 16 -11 2z"/>
<path d="M177 1473 c-11 -10 -8 -51 4 -58 6 -4 13 -4 17 0 4 4 1 10 -5 12 -23
8 -14 33 11 33 19 0 22 -4 19 -23 -5 -27 19 -52 42 -43 8 3 15 14 15 25 0 11
4 22 10 26 5 3 6 13 3 21 -4 11 -8 12 -13 4 -5 -8 -14 -8 -34 0 -31 12 -60 13
-69 3z m88 -43 c0 -22 -29 -18 -33 3 -3 14 1 18 15 15 10 -2 18 -10 18 -18z"/>
<path d="M144 1365 c-4 -8 -4 -22 -1 -30 4 -8 1 -17 -4 -21 -6 -3 -9 -17 -6
-30 2 -13 0 -24 -4 -24 -5 0 -9 -6 -9 -12 0 -8 17 -13 46 -14 26 -1 50 -7 54
-14 5 -8 9 -3 12 12 4 21 1 24 -16 21 -31 -6 -76 14 -76 33 0 14 7 16 41 11
23 -3 45 -11 49 -17 5 -8 9 -7 14 5 10 28 8 30 -35 31 -39 0 -64 18 -52 37 6
9 53 5 86 -8 11 -5 17 -2 17 8 0 9 -14 17 -37 21 -58 9 -73 7 -79 -9z"/>
<path d="M2063 1310 c-12 -5 -27 -18 -33 -29 -8 -17 -6 -25 11 -42 11 -11 24
-17 27 -13 4 3 1 9 -5 11 -18 6 -16 38 3 54 13 10 17 10 25 -2 5 -8 9 -21 9
-30 0 -23 11 -30 27 -18 23 20 16 58 -13 69 -14 6 -26 10 -27 9 -1 0 -12 -4
-24 -9z"/>
<path d="M2110 1208 c-19 -6 -55 -8 -81 -6 -38 2 -45 0 -42 -13 3 -11 13 -14
34 -11 24 4 28 1 23 -12 -10 -26 15 -46 56 -46 46 0 69 22 52 50 -6 11 -7 20
-2 22 5 2 6 8 2 14 -5 7 -18 8 -42 2z m25 -42 c0 -10 -9 -22 -20 -26 -23 -9
-65 4 -65 20 0 14 39 30 65 27 12 -1 20 -9 20 -21z"/>
<path d="M110 1188 c0 -10 10 -13 33 -10 34 4 74 -18 64 -35 -4 -6 -28 -8 -57
-5 -47 4 -50 3 -50 -19 0 -18 3 -20 9 -10 6 10 21 12 49 9 48 -7 67 3 59 31
-3 12 -1 21 5 21 5 0 8 5 6 11 -6 18 -118 24 -118 7z"/>
<path d="M2057 1093 c-7 -12 -3 -71 6 -79 4 -4 7 -2 7 4 0 6 21 12 48 14 39 2
48 7 50 24 3 22 -24 52 -36 40 -4 -4 1 -12 11 -17 23 -13 22 -29 -3 -29 -11 0
-20 4 -20 9 0 26 -52 53 -63 34z m51 -36 c2 -10 -3 -17 -11 -17 -18 0 -39 24
-30 34 12 12 38 2 41 -17z"/>
<path d="M203 1079 c-6 -6 -39 -9 -82 -7 -69 3 -71 2 -71 -21 0 -19 3 -21 14
-11 24 19 59 8 63 -19 5 -37 13 -38 13 -3 0 29 3 32 30 32 17 0 33 -7 39 -17
8 -15 10 -11 11 20 0 41 -1 42 -17 26z"/>
<path d="M51 972 c-1 -29 1 -32 18 -22 27 14 124 13 139 -2 9 -9 12 -4 11 22
0 19 -3 29 -6 23 -3 -9 -29 -13 -78 -13 -49 0 -75 4 -78 13 -3 6 -6 -3 -6 -21z"/>
<path d="M2050 973 c0 -16 10 -18 85 -18 56 0 85 4 85 11 0 7 -28 12 -77 13
-42 1 -80 4 -85 7 -4 3 -8 -3 -8 -13z"/>
<path d="M189 770 c-16 -44 -16 -45 -57 -42 -47 3 -55 -9 -17 -26 34 -16 39
-33 21 -76 -18 -42 -12 -44 29 -11 l30 24 34 -32 c33 -31 34 -31 27 -7 -20 74
-20 74 21 97 l38 23 -46 0 -46 0 -9 48 -9 47 -16 -45z m30 -92 c1 -5 -5 -8
-13 -8 -8 0 -17 -6 -19 -12 -3 -7 -6 1 -6 19 -1 47 34 47 38 1z"/>
<path d="M2040 769 c-15 -44 -15 -44 -60 -42 l-45 2 34 -28 35 -29 -16 -41
c-19 -48 -14 -51 25 -15 l29 26 29 -28 c16 -15 31 -25 34 -23 2 3 0 22 -6 43
-6 21 -9 39 -7 41 2 1 19 12 38 24 l35 21 -43 0 c-25 0 -44 5 -46 13 -2 6 -8
27 -12 46 l-9 33 -15 -43z m24 -74 c-4 -8 -1 -15 6 -15 6 0 9 -4 6 -9 -3 -5
-15 -7 -26 -4 -30 8 -25 43 6 43 8 0 11 -6 8 -15z"/>
<path d="M365 537 c-15 -12 -17 -22 -11 -64 5 -37 3 -53 -8 -62 -31 -26 -73
31 -46 64 17 20 4 19 -24 -2 -20 -15 -21 -18 -7 -34 9 -10 22 -25 29 -33 18
-22 69 -21 81 3 6 10 8 42 4 71 -6 50 -5 52 17 48 33 -4 48 -33 32 -58 -15
-25 -1 -26 22 -1 16 17 15 20 -13 50 -32 34 -48 38 -76 18z"/>
<path d="M1911 526 c-11 -13 -11 -16 1 -16 7 0 22 -14 32 -31 l18 -31 -33 7
c-19 4 -39 11 -45 16 -7 5 -20 -1 -34 -16 -23 -24 -24 -24 -43 -7 -19 16 -20
16 -14 -1 4 -10 7 -25 7 -33 0 -9 4 -13 8 -10 5 3 25 -9 45 -25 41 -33 70 -35
74 -4 2 11 0 14 -3 8 -9 -20 -26 -15 -62 16 -28 24 -31 30 -18 40 20 17 112
-4 141 -31 19 -17 19 -18 1 -31 -13 -10 -15 -16 -8 -21 28 -17 46 36 21 61 -7
7 -26 37 -44 68 -27 49 -33 54 -44 41z"/>
<path d="M396 384 c-14 -15 -26 -32 -26 -38 1 -23 28 -46 56 -46 l29 0 -25 13
c-27 14 -35 34 -21 56 7 11 15 9 43 -13 19 -14 38 -23 41 -19 12 11 7 41 -9
57 -23 24 -58 19 -88 -10z m81 1 c3 -9 3 -19 -1 -22 -7 -7 -36 16 -36 28 0 15
30 10 37 -6z"/>
<path d="M1767 383 c-11 -11 -8 -23 6 -23 20 0 70 -57 62 -70 -4 -7 5 -4 20 6
25 16 25 18 9 25 -11 4 -32 21 -48 38 -31 32 -38 36 -49 24z"/>
<path d="M516 349 c8 -13 -44 -69 -65 -69 -11 0 -10 -4 5 -15 20 -15 38 -20
30 -7 -2 4 11 25 30 46 26 30 32 41 22 47 -18 12 -30 11 -22 -2z"/>
<path d="M1692 323 c-4 -10 -13 -18 -21 -18 -8 0 -16 -6 -19 -14 -3 -8 0 -11
6 -7 5 3 22 -11 38 -32 15 -20 29 -39 30 -41 1 -1 8 0 14 4 7 4 0 19 -18 43
-31 40 -32 62 -2 62 21 0 64 -55 55 -70 -8 -13 1 -13 23 1 16 10 15 14 -18 50
-38 42 -76 51 -88 22z"/>
<path d="M560 315 c7 -8 16 -12 21 -9 12 7 11 -8 -2 -62 -6 -25 -9 -47 -6 -50
2 -3 28 9 56 26 74 43 98 21 43 -38 -27 -29 -28 -31 -8 -36 11 -3 20 -4 21 -3
0 1 12 25 26 52 l27 51 -35 11 c-31 9 -37 8 -60 -13 -14 -13 -30 -24 -35 -24
-12 0 1 64 13 68 14 5 -36 42 -56 42 -14 0 -15 -3 -5 -15z"/>
<path d="M1594 277 c-23 -13 -34 -28 -28 -39 9 -15 26 -8 20 7 -7 19 21 32 37
16 8 -8 5 -17 -12 -35 -13 -13 -21 -32 -19 -42 4 -23 38 -31 52 -13 6 8 20 14
30 14 11 0 21 6 24 14 3 8 0 11 -6 7 -7 -4 -20 10 -31 32 -23 45 -39 54 -67
39z m52 -83 c-8 -20 -36 -17 -36 4 0 28 22 46 33 26 5 -8 6 -22 3 -30z"/>
<path d="M1478 231 c-9 -14 -16 -17 -24 -10 -15 12 -54 -5 -54 -23 0 -9 3 -9
12 0 7 7 16 12 20 12 11 0 50 -79 43 -89 -3 -5 4 -7 15 -4 23 6 37 23 20 23
-14 0 -40 60 -33 77 10 25 39 13 56 -23 10 -19 15 -40 12 -45 -7 -11 5 -12 23
-1 10 7 7 19 -14 55 -28 51 -55 61 -76 28z"/>
<path d="M1185 221 c-24 -5 -26 -8 -12 -13 14 -6 17 -20 17 -77 0 -58 -3 -70
-17 -74 -10 -3 1 -5 24 -4 33 1 40 4 32 14 -6 7 -13 40 -16 74 -5 53 -3 64 12
76 21 14 12 15 -40 4z"/>
<path d="M752 213 c5 -19 -15 -74 -30 -83 -9 -5 -12 -10 -5 -10 6 0 20 -3 30
-7 10 -3 15 -3 11 1 -4 5 2 30 12 57 20 49 20 49 0 49 -11 0 -19 -3 -18 -7z"/>
<path d="M1052 213 c22 -6 37 -141 17 -154 -9 -6 0 -9 26 -9 32 1 36 3 23 11
-11 6 -18 22 -18 39 0 27 3 29 43 33 l42 4 -42 1 c-42 2 -43 3 -43 36 0 19 6
37 13 39 6 3 -8 5 -33 5 -25 0 -38 -2 -28 -5z"/>
<path d="M814 197 c14 -11 15 -17 6 -42 -6 -17 -17 -35 -25 -41 -12 -9 -10
-13 11 -22 19 -9 24 -9 22 1 -1 6 4 29 11 50 16 46 9 67 -21 67 -20 0 -20 -1
-4 -13z"/>
<path d="M1371 196 c-8 -9 -9 -16 -3 -16 10 0 38 -68 34 -82 -3 -10 7 -9 33 2
11 5 14 9 7 9 -7 1 -23 24 -36 52 -19 44 -24 49 -35 35z"/>
<path d="M891 174 c-16 -11 -21 -23 -17 -37 3 -12 0 -27 -6 -34 -6 -7 -7 -13
-3 -13 5 0 0 -9 -10 -20 -26 -29 -5 -50 50 -50 77 0 85 50 10 64 -19 4 -35 12
-35 18 0 6 9 8 21 5 28 -7 69 9 69 27 0 8 8 16 18 19 14 3 12 6 -8 14 -53 22
-66 23 -89 7z m43 0 c20 -8 21 -38 1 -54 -19 -15 -35 -5 -35 24 0 33 8 40 34
30z m13 -117 c10 -10 -8 -27 -28 -27 -26 0 -59 18 -59 32 0 10 75 6 87 -5z"/>
<path d="M1312 178 c9 -7 19 -27 23 -45 5 -26 2 -34 -14 -42 -23 -13 -34 0
-46 57 -4 19 -13 32 -22 32 -10 0 -13 -5 -8 -17 4 -10 11 -33 17 -51 10 -36
29 -48 56 -36 9 4 24 9 32 9 8 1 21 3 29 4 12 1 12 3 -1 14 -9 6 -21 28 -25
47 -7 26 -15 36 -34 38 -21 3 -22 2 -7 -10z"/>
</g>
</svg>
